<svg width="70" height="50" viewBox="0 0 70 50" fill="none" xmlns="http://www.w3.org/2000/svg">
<path d="M2.34277 39.7436V11.0256H10.3164L21.8246 29.7744H17.6323L28.8118 11.0256H36.7853L36.8675 39.7436H28.0308L27.9486 24.3179H29.3461L21.7013 37.159H17.4268L9.45323 24.3179H11.1795V39.7436H2.34277ZM41.5572 39.7436V11.0256H55.4082C58.0936 11.0256 60.4087 11.4632 62.3543 12.3385C64.3271 13.2137 65.8479 14.4718 66.9165 16.1128C67.9851 17.7265 68.5194 19.641 68.5194 21.8564C68.5194 24.0718 67.9851 25.9863 66.9165 27.6C65.8479 29.1863 64.3271 30.4034 62.3543 31.2513C60.4087 32.099 58.0936 32.5231 55.4082 32.5231H46.9414L51.257 28.5436V39.7436H41.5572ZM58.7785 39.7436L51.7091 29.282H61.9844L69.1359 39.7436H58.7785ZM51.257 29.6102L46.9414 25.2205H54.7917C56.1342 25.2205 57.1207 24.9196 57.751 24.3179C58.4086 23.7162 58.7374 22.8957 58.7374 21.8564C58.7374 20.8171 58.4086 19.9966 57.751 19.3949C57.1207 18.7932 56.1342 18.4923 54.7917 18.4923H46.9414L51.257 14.1026V29.6102Z" fill="black"/>
<path d="M9.31199 38.3436H3.91749V36.8513L7.43933 34.6975V35.4821L3.91749 33.3898V31.8975L9.31199 31.8821V33.536L6.41437 33.5513V33.2898L8.82648 34.7206V35.5206L6.41437 37.0129V36.6898H9.31199V38.3436ZM9.43529 28.1813C9.43529 28.6172 9.36593 29.0224 9.22722 29.3967C9.0885 29.766 8.89327 30.0865 8.64153 30.3583C8.38465 30.6301 8.0841 30.8429 7.73988 30.9967C7.39566 31.1454 7.02061 31.2198 6.61474 31.2198C6.20373 31.2198 5.82868 31.1454 5.4896 30.9967C5.14538 30.8429 4.8474 30.6301 4.59566 30.3583C4.33878 30.0865 4.14098 29.766 4.00226 29.3967C3.86355 29.0224 3.79419 28.6172 3.79419 28.1813C3.79419 27.7403 3.86355 27.3352 4.00226 26.966C4.14098 26.5967 4.33878 26.2762 4.59566 26.0044C4.8474 25.7326 5.14538 25.5224 5.4896 25.3736C5.82868 25.2198 6.20373 25.1429 6.61474 25.1429C7.02061 25.1429 7.39566 25.2198 7.73988 25.3736C8.0841 25.5224 8.38465 25.7326 8.64153 26.0044C8.89327 26.2762 9.0885 26.5967 9.22722 26.966C9.36593 27.3352 9.43529 27.7403 9.43529 28.1813ZM7.96336 28.1813C7.96336 28.0121 7.93254 27.8557 7.87089 27.7121C7.80923 27.5634 7.7219 27.4352 7.60887 27.3275C7.4907 27.2147 7.34942 27.1275 7.18501 27.066C7.01547 27.0044 6.82538 26.9736 6.61474 26.9736C6.4041 26.9736 6.21657 27.0044 6.05217 27.066C5.88263 27.1275 5.74135 27.2147 5.62832 27.3275C5.51015 27.4352 5.42024 27.5634 5.35859 27.7121C5.29694 27.8557 5.26612 28.0121 5.26612 28.1813C5.26612 28.3506 5.29694 28.5095 5.35859 28.6583C5.42024 28.8018 5.51015 28.9301 5.62832 29.0429C5.74135 29.1506 5.88263 29.2352 6.05217 29.2967C6.21657 29.3583 6.4041 29.389 6.61474 29.389C6.82538 29.389 7.01547 29.3583 7.18501 29.2967C7.34942 29.2352 7.4907 29.1506 7.60887 29.0429C7.7219 28.9301 7.80923 28.8018 7.87089 28.6583C7.93254 28.5095 7.96336 28.3506 7.96336 28.1813ZM9.43529 21.6609C9.43529 22.0968 9.36593 22.5019 9.22722 22.8763C9.0885 23.2455 8.89327 23.566 8.64153 23.8378C8.38465 24.1096 8.0841 24.3224 7.73988 24.4763C7.39566 24.625 7.02061 24.6993 6.61474 24.6993C6.20373 24.6993 5.82868 24.625 5.4896 24.4763C5.14538 24.3224 4.8474 24.1096 4.59566 23.8378C4.33878 23.566 4.14098 23.2455 4.00226 22.8763C3.86355 22.5019 3.79419 22.0968 3.79419 21.6609C3.79419 21.2199 3.86355 20.8147 4.00226 20.4455C4.14098 20.0763 4.33878 19.7558 4.59566 19.484C4.8474 19.2122 5.14538 19.0019 5.4896 18.8532C5.82868 18.6993 6.20373 18.6224 6.61474 18.6224C7.02061 18.6224 7.39566 18.6993 7.73988 18.8532C8.0841 19.0019 8.38465 19.2122 8.64153 19.484C8.89327 19.7558 9.0885 20.0763 9.22722 20.4455C9.36593 20.8147 9.43529 21.2199 9.43529 21.6609ZM7.96336 21.6609C7.96336 21.4917 7.93254 21.3352 7.87089 21.1917C7.80923 21.0429 7.7219 20.9147 7.60887 20.807C7.4907 20.6942 7.34942 20.607 7.18501 20.5455C7.01547 20.484 6.82538 20.4532 6.61474 20.4532C6.4041 20.4532 6.21657 20.484 6.05217 20.5455C5.88263 20.607 5.74135 20.6942 5.62832 20.807C5.51015 20.9147 5.42024 21.0429 5.35859 21.1917C5.29694 21.3352 5.26612 21.4917 5.26612 21.6609C5.26612 21.8301 5.29694 21.9891 5.35859 22.1378C5.42024 22.2814 5.51015 22.4096 5.62832 22.5224C5.74135 22.6301 5.88263 22.7147 6.05217 22.7763C6.21657 22.8378 6.4041 22.8686 6.61474 22.8686C6.82538 22.8686 7.01547 22.8378 7.18501 22.7763C7.34942 22.7147 7.4907 22.6301 7.60887 22.5224C7.7219 22.4096 7.80923 22.2814 7.87089 22.1378C7.93254 21.9891 7.96336 21.8301 7.96336 21.6609ZM9.31199 17.9635H3.91749V15.3097C3.91749 14.7097 4.02795 14.1815 4.24887 13.7251C4.46465 13.2687 4.7729 12.9123 5.17364 12.6559C5.57437 12.3994 6.05217 12.2712 6.60703 12.2712C7.16703 12.2712 7.64997 12.3994 8.05584 12.6559C8.45657 12.9123 8.7674 13.2687 8.98832 13.7251C9.2041 14.1815 9.31199 14.7097 9.31199 15.3097V17.9635ZM7.89401 16.1482V15.3866C7.89401 15.1302 7.8452 14.9071 7.74758 14.7174C7.64997 14.5225 7.50612 14.3712 7.31602 14.2635C7.12079 14.1559 6.88446 14.102 6.60703 14.102C6.33474 14.102 6.10355 14.1559 5.91346 14.2635C5.72336 14.3712 5.57951 14.5225 5.4819 14.7174C5.38428 14.9071 5.33547 15.1302 5.33547 15.3866V16.1482H7.89401Z" fill="#FF8A00"/>
<path d="M49.1284 38.3437H43.7339V35.7514C43.7339 35.2488 43.8161 34.8155 43.9805 34.4514C44.1449 34.0822 44.3812 33.7975 44.6895 33.5975C44.9926 33.3975 45.3522 33.2975 45.7684 33.2975C46.1845 33.2975 46.5442 33.3975 46.8473 33.5975C47.1453 33.7975 47.3739 34.0822 47.5332 34.4514C47.6924 34.8155 47.7721 35.2488 47.7721 35.7514V37.336L47.0245 36.5283H49.1284V38.3437ZM49.1284 35.1206L47.1633 36.4437V34.5206L49.1284 33.1822V35.1206ZM47.2249 36.5283L46.4003 37.336V35.8668C46.4003 35.6155 46.3438 35.4309 46.2308 35.3129C46.1178 35.1898 45.9636 35.1283 45.7684 35.1283C45.5732 35.1283 45.419 35.1898 45.306 35.3129C45.193 35.4309 45.1365 35.6155 45.1365 35.8668V37.336L44.3119 36.5283H47.2249ZM49.2517 29.789C49.2517 30.2248 49.1823 30.63 49.0436 31.0043C48.9049 31.3736 48.7097 31.6941 48.4579 31.9659C48.2011 32.2376 47.9005 32.4504 47.5563 32.6043C47.2121 32.753 46.837 32.8273 46.4311 32.8273C46.0201 32.8273 45.6451 32.753 45.306 32.6043C44.9618 32.4504 44.6638 32.2376 44.4121 31.9659C44.1552 31.6941 43.9574 31.3736 43.8187 31.0043C43.68 30.63 43.6106 30.2248 43.6106 29.789C43.6106 29.3479 43.68 28.9428 43.8187 28.5736C43.9574 28.2043 44.1552 27.8838 44.4121 27.612C44.6638 27.3402 44.9618 27.13 45.306 26.9813C45.6451 26.8274 46.0201 26.7505 46.4311 26.7505C46.837 26.7505 47.2121 26.8274 47.5563 26.9813C47.9005 27.13 48.2011 27.3402 48.4579 27.612C48.7097 27.8838 48.9049 28.2043 49.0436 28.5736C49.1823 28.9428 49.2517 29.3479 49.2517 29.789ZM47.7798 29.789C47.7798 29.6197 47.7489 29.4633 47.6873 29.3197C47.6256 29.171 47.5383 29.0428 47.4253 28.9351C47.3071 28.8223 47.1658 28.7351 47.0014 28.6736C46.8319 28.612 46.6418 28.5813 46.4311 28.5813C46.2205 28.5813 46.033 28.612 45.8686 28.6736C45.699 28.7351 45.5578 28.8223 45.4447 28.9351C45.3266 29.0428 45.2367 29.171 45.175 29.3197C45.1134 29.4633 45.0825 29.6197 45.0825 29.789C45.0825 29.9582 45.1134 30.1172 45.175 30.2659C45.2367 30.4095 45.3266 30.5377 45.4447 30.6505C45.5578 30.7582 45.699 30.8428 45.8686 30.9043C46.033 30.9659 46.2205 30.9966 46.4311 30.9966C46.6418 30.9966 46.8319 30.9659 47.0014 30.9043C47.1658 30.8428 47.3071 30.7582 47.4253 30.6505C47.5383 30.5377 47.6256 30.4095 47.6873 30.2659C47.7489 30.1172 47.7798 29.9582 47.7798 29.789Z" fill="#FF8A00"/>
</svg>
