<svg aria-hidden="true" style="position: absolute; width: 0; height: 0; overflow: hidden;" version="1.1" xmlns="http://www.w3.org/2000/svg" xmlns:xlink="http://www.w3.org/1999/xlink">
<defs>
<symbol id="icon-boy" viewBox="0 0 32 32">
<path d="M6.7 22.5c-0.133 0-0.26 0.053-0.354 0.146s-0.146 0.221-0.146 0.354 0.053 0.26 0.146 0.354c0.094 0.094 0.221 0.146 0.354 0.146s0.26-0.053 0.354-0.146c0.094-0.094 0.146-0.221 0.146-0.354s-0.053-0.26-0.146-0.354c-0.094-0.094-0.221-0.146-0.354-0.146zM25.67 22.13c-0.231-1.422-1.010-2.696-2.17-3.55 0.003-0.027 0.003-0.053 0-0.080v-0.5c0-0.133-0.053-0.26-0.146-0.354s-0.221-0.146-0.354-0.146h-4.5v-1.56c0.808-0.371 1.523-0.917 2.093-1.599s0.983-1.481 1.207-2.341h0.2c0.483-0.006 0.947-0.186 1.307-0.507s0.592-0.762 0.653-1.24c0.061-0.479-0.053-0.963-0.322-1.364s-0.673-0.692-1.138-0.818v-6.070h1.5v6.5c0 0.133 0.053 0.26 0.146 0.354s0.221 0.146 0.354 0.146c0.133 0 0.26-0.053 0.354-0.146s0.146-0.221 0.146-0.354v-6.5h0.5c0.133 0 0.26-0.053 0.354-0.146s0.146-0.221 0.146-0.354c0-0.133-0.053-0.26-0.146-0.354s-0.221-0.146-0.354-0.146h-19c-0.133 0-0.26 0.053-0.354 0.146s-0.146 0.221-0.146 0.354c0 0.133 0.053 0.26 0.146 0.354s0.221 0.146 0.354 0.146h3v6.070c-0.343 0.085-0.658 0.257-0.915 0.5-0.285 0.279-0.481 0.637-0.561 1.027s-0.042 0.797 0.11 1.165c0.152 0.369 0.411 0.684 0.744 0.904s0.723 0.337 1.122 0.333h0.2c0.224 0.86 0.636 1.66 1.207 2.341s1.286 1.227 2.093 1.599v1.56h-4.5c-0.133 0-0.26 0.053-0.354 0.146s-0.146 0.221-0.146 0.354v0.58c-0.95 0.701-1.651 1.687-2 2.815-0.038 0.127-0.025 0.265 0.038 0.382s0.17 0.205 0.297 0.243c0.127 0.038 0.265 0.025 0.382-0.038s0.205-0.17 0.243-0.297c0.218-0.717 0.611-1.369 1.145-1.895l0.060 0.315c0.363 1.674 1.288 3.174 2.621 4.25s2.995 1.662 4.709 1.662c1.713 0 3.375-0.587 4.709-1.662s2.259-2.575 2.621-4.25l0.060-0.32c0.684 0.675 1.136 1.551 1.29 2.5l1.325 8.295c0.019 0.118 0.080 0.226 0.172 0.303s0.208 0.119 0.328 0.117h0.080c0.066-0.010 0.13-0.033 0.187-0.067s0.107-0.080 0.146-0.134c0.039-0.054 0.067-0.115 0.082-0.18s0.017-0.132 0.006-0.198l-1.33-8.29zM21.395 18.545c-0.037 0.194-0.083 0.386-0.14 0.575 0 0.035 0 0.070-0.035 0.105-0.347 1.048-1.002 1.968-1.879 2.639s-1.936 1.063-3.039 1.124c-1.103 0.061-2.198-0.211-3.144-0.782s-1.698-1.412-2.159-2.416c-0.084-0.183-0.157-0.369-0.22-0.56 0-0.040 0-0.075-0.035-0.11-0.057-0.189-0.103-0.381-0.14-0.575 0 0 0-0.030 0-0.045h2.945c0.032 0.139 0.074 0.276 0.125 0.41 0 0.040 0.035 0.075 0.050 0.115 0.047 0.099 0.098 0.196 0.155 0.29l0.070 0.11c0.084 0.124 0.179 0.239 0.285 0.345 0.469 0.467 1.103 0.73 1.765 0.73 0.168 0 0.335-0.016 0.5-0.050l0.15-0.040c0.101-0.022 0.199-0.053 0.295-0.090l0.16-0.075c0.085-0.039 0.167-0.084 0.245-0.135 0.053-0.033 0.103-0.069 0.15-0.11 0.075-0.054 0.147-0.112 0.215-0.175l0.13-0.125c0.060-0.070 0.12-0.14 0.175-0.215l0.105-0.145c0.055-0.084 0.104-0.173 0.145-0.265l0.065-0.135c0.055-0.134 0.099-0.273 0.13-0.415v-0.030h2.955c0 0-0.020 0.035-0.025 0.050zM15.135 16.43h0.18c0.455 0.060 0.915 0.060 1.37 0h0.18c0.175 0 0.345-0.055 0.5-0.095l0.12-0.025v1.69c0 0.398-0.158 0.779-0.439 1.061s-0.663 0.439-1.061 0.439c-0.398 0-0.779-0.158-1.061-0.439s-0.439-0.663-0.439-1.061v-1.69l0.12 0.025c0.185 0.040 0.355 0.070 0.53 0.095zM20.845 7.595c-0.066-0.094-0.123-0.195-0.17-0.3v-0.025c-0.045-0.112-0.082-0.228-0.11-0.345 0.002-0.015 0.002-0.030 0-0.045l0.905-0.225h0.055v1.545l-0.040-0.025c-0.095-0.054-0.185-0.116-0.27-0.185l-0.050-0.045c-0.087-0.076-0.166-0.162-0.235-0.255-0.031-0.029-0.059-0.061-0.085-0.095zM23 10c0 0.265-0.105 0.52-0.293 0.707s-0.442 0.293-0.707 0.293c0-0.165 0-0.33 0-0.5v-1c0.094 0 0.186-0.026 0.265-0.075 0.046-0.031 0.087-0.070 0.12-0.115 0.002-0.012 0.002-0.023 0-0.035 0.035-0.045 0.060-0.096 0.075-0.15 0.161 0.083 0.296 0.209 0.391 0.363s0.147 0.331 0.149 0.512zM21.5 2v3.61l-1.62 0.39-3.88 1-3.88-1-1.62-0.39v-3.61h11zM11.15 7.6l-0.045 0.065c-0.074 0.097-0.156 0.187-0.245 0.27l-0.045 0.035c-0.085 0.072-0.178 0.135-0.275 0.19l-0.040 0.025v-1.545l0.96 0.24c-0.002 0.015-0.002 0.030 0 0.045-0.056 0.244-0.162 0.474-0.31 0.675zM10 11c-0.265 0-0.52-0.105-0.707-0.293s-0.293-0.442-0.293-0.707c0.001-0.265 0.107-0.518 0.295-0.705 0.064-0.068 0.138-0.125 0.22-0.17 0.015 0.055 0.040 0.105 0.075 0.15-0.001 0.012-0.001 0.023 0 0.035 0.034 0.046 0.077 0.085 0.125 0.115 0.085 0.053 0.185 0.079 0.285 0.075v1c0 0.17 0 0.335 0 0.5zM11.080 11.41c-0.052-0.301-0.079-0.605-0.080-0.91v-1.445c0.065-0.035 0.125-0.075 0.185-0.115l0.065-0.040c0.1-0.070 0.195-0.15 0.29-0.23l0.060-0.065c0.069-0.063 0.134-0.13 0.195-0.2l0.070-0.090c0.058-0.070 0.111-0.143 0.16-0.22 0.020-0.025 0.036-0.052 0.050-0.080 0.065-0.102 0.121-0.209 0.17-0.32 0.002-0.017 0.002-0.033 0-0.050 0.040-0.095 0.075-0.192 0.105-0.29 0.012-0.036 0.022-0.073 0.030-0.11 0-0.040 0.025-0.080 0.035-0.12l3.465 0.875c0.079 0.020 0.161 0.020 0.24 0l3.445-0.86c0 0 0 0.040 0 0.065 0.030 0.115 0.065 0.23 0.105 0.34 0 0.030 0 0.060 0.035 0.090 0.145 0.355 0.361 0.677 0.635 0.945l0.055 0.060c0.053 0.051 0.11 0.097 0.17 0.14l0.135 0.11 0.15 0.095 0.13 0.085v1.43c0.001 0.305-0.025 0.61-0.080 0.91-0.12 0.646-0.367 1.263-0.725 1.814s-0.823 1.026-1.365 1.397c-0.542 0.372-1.153 0.632-1.796 0.768s-1.307 0.143-1.953 0.021c-0.306-0.062-0.607-0.147-0.9-0.255-0.787-0.314-1.483-0.822-2.021-1.477s-0.903-1.435-1.059-2.268zM22.35 19.91c-0.317 1.448-1.119 2.745-2.274 3.675s-2.593 1.437-4.076 1.437c-1.483 0-2.921-0.507-4.076-1.437s-1.957-2.227-2.274-3.675c-0.085-0.371-0.136-0.75-0.15-1.13-0.005-0.093-0.005-0.187 0-0.28h0.080c0 0.065 0.025 0.13 0.035 0.19s0.025 0.14 0.040 0.205c0.017 0.088 0.039 0.175 0.065 0.26 0 0.065 0.030 0.13 0.050 0.19s0.060 0.185 0.090 0.28c0.030 0.095 0.035 0.105 0.055 0.16 0.055 0.145 0.11 0.285 0.175 0.425 0.518 1.132 1.351 2.091 2.399 2.764s2.267 1.030 3.511 1.030c1.245 0 2.464-0.358 3.512-1.030s1.88-1.632 2.398-2.764c0.065-0.14 0.12-0.285 0.175-0.425 0-0.050 0.030-0.095 0.050-0.14s0.070-0.2 0.1-0.305c0.030-0.105 0.025-0.105 0.040-0.16l0.075-0.29 0.030-0.175c0-0.070 0.030-0.145 0.040-0.215h0.080c0 0.095 0 0.185 0 0.305-0.017 0.367-0.068 0.732-0.15 1.090v0.015zM6.55 23.95c-0.065-0.011-0.132-0.008-0.196 0.007s-0.125 0.043-0.178 0.081-0.099 0.087-0.133 0.143c-0.035 0.056-0.058 0.119-0.068 0.184l-0.975 6.055c-0.011 0.066-0.010 0.133 0.006 0.198s0.043 0.126 0.082 0.18 0.089 0.1 0.146 0.134c0.057 0.035 0.12 0.057 0.187 0.067h0.080c0.12 0.002 0.236-0.040 0.328-0.117s0.153-0.185 0.172-0.303l0.97-6.055c0.011-0.065 0.008-0.132-0.007-0.197s-0.043-0.125-0.083-0.179c-0.039-0.053-0.088-0.099-0.145-0.133s-0.12-0.057-0.185-0.067z"></path>
<path d="M16 14.765c0.601 0.001 1.178-0.237 1.605-0.66 0.094-0.094 0.147-0.222 0.147-0.355s-0.053-0.261-0.147-0.355-0.222-0.147-0.355-0.147c-0.133 0-0.261 0.053-0.355 0.147-0.117 0.118-0.257 0.211-0.411 0.275s-0.318 0.096-0.484 0.096c-0.166 0-0.331-0.033-0.484-0.096s-0.293-0.157-0.411-0.275c-0.047-0.047-0.102-0.084-0.163-0.109s-0.126-0.038-0.192-0.038-0.131 0.013-0.192 0.038c-0.061 0.025-0.116 0.062-0.163 0.109s-0.084 0.102-0.109 0.163-0.038 0.126-0.038 0.192c0 0.066 0.013 0.131 0.038 0.192s0.062 0.116 0.109 0.163c0.427 0.423 1.004 0.661 1.605 0.66z"></path>
</symbol>
<symbol id="icon-family" viewBox="0 0 32 32">
<path d="M27.808 18.914l-2.483-0.563v-1.032c0.553-0.243 1.062-0.587 1.502-1.027 0.691-0.691 1.15-1.55 1.34-2.486 0.818-0.105 1.452-0.805 1.452-1.651 0-0.443-0.175-0.862-0.484-1.172v-3.817c0-2.372-1.93-4.302-4.302-4.302v0.013c-0.283-0.345-0.713-0.565-1.193-0.566h-0.007c-0.006 0-0.011 0-0.017 0-1.588 0-3.093 0.63-4.241 1.774-1.176 1.173-1.824 2.724-1.824 4.367v2.551c-0.296 0.308-0.464 0.72-0.464 1.152 0 0.298 0.079 0.578 0.217 0.82-0.432-0.114-0.882-0.173-1.342-0.17-0.856 0.006-1.663 0.23-2.37 0.618v-0.619c0-1.91-1.223-3.579-3.044-4.153l-0.188 0.596c1.559 0.491 2.607 1.921 2.607 3.557v1.023c-1.067 0.807-1.812 2.027-2.001 3.42-0.682 0.451-1.474 0.69-2.298 0.69-1.115 0-2.164-0.434-2.953-1.223s-1.223-1.838-1.223-2.953v-0.797c0-1.367 0.795-2.62 2.028-3.205l0.035-0.016c1.473-0.679 2.425-2.166 2.425-3.789v-0.535h-0.625v0.535c0 1.366-0.793 2.62-2.025 3.204l-0.037 0.017c-1.474 0.679-2.426 2.167-2.426 3.789v4.869c0 0.665 0.099 1.321 0.294 1.955-0.97 0.363-1.77 1.071-2.249 1.992-0.462-0.565-0.72-1.278-0.72-2.014 0-0.988 0.447-1.903 1.227-2.511 0.455-0.356 0.716-0.889 0.716-1.462v-6.401c0-1.483 0.577-2.877 1.626-3.925 1.037-1.037 2.416-1.614 3.882-1.625 1.468-0.012 2.858 0.561 3.918 1.613 1.082 1.074 1.678 2.497 1.678 4.007v2.713h0.625v-2.713c0-1.679-0.661-3.259-1.863-4.451-1.179-1.17-2.728-1.806-4.363-1.794-1.631 0.013-3.164 0.655-4.319 1.808-1.167 1.167-1.809 2.718-1.809 4.367v6.401c0 0.38-0.173 0.733-0.476 0.969-0.932 0.727-1.467 1.822-1.467 3.003 0 0.99 0.39 1.945 1.077 2.653-0.137 0.419-0.207 0.855-0.207 1.301v5.973h7.667v-0.625h-7.042v-5.348c0-0.439 0.079-0.867 0.234-1.274 0.427-1.12 1.381-1.947 2.55-2.212l2.684-0.608v-1.198c0.368 0.089 0.749 0.135 1.137 0.135 0.401 0 0.795-0.050 1.176-0.145v1.208l1.074 0.244v1.498c0 1.317 1.071 2.388 2.388 2.388h0.087v-0.625h-0.087c-0.972 0-1.763-0.791-1.763-1.763v-3.418c0-2.473 1.985-4.5 4.425-4.518 1.2-0.009 2.325 0.451 3.175 1.294s1.318 1.967 1.318 3.164v3.478c0 0.972-0.791 1.763-1.763 1.763v0.625c1.317 0 2.388-1.071 2.388-2.388v-2.298l0.335-0.076v2.847c0 0.179 0.114 0.339 0.284 0.397 0.044 0.015 0.090 0.023 0.135 0.023 0.127 0 0.251-0.058 0.332-0.163l1.202-1.674 1.202 1.674c0.11 0.142 0.297 0.198 0.467 0.141s0.284-0.217 0.284-0.397v-2.847l2.345 0.532c1.848 0.419 3.139 2.035 3.139 3.93v5.612h-2.656v-5.222h-0.625v5.222h-5.022v0.625h8.928v-6.237c0-1.052-0.361-2.084-1.018-2.905s-1.583-1.402-2.608-1.634zM5.272 17.155c0.017 0.017 0.036 0.034 0.053 0.051v0.609c0 0.548 0.069 1.092 0.202 1.622l-0.767 0.174c-0.178-0.577-0.269-1.174-0.269-1.779v-1.701c0.211 0.37 0.472 0.715 0.781 1.025zM6.905 19.125l-0.768 0.174c-0.123-0.484-0.186-0.982-0.186-1.484v-0.096c0.299 0.206 0.619 0.376 0.954 0.509v0.897zM10.467 19.125v-0.912c0.153-0.062 0.303-0.133 0.449-0.211v1.225l-0.449-0.102zM28.254 13.149c0.007-0.11 0.012-0.221 0.012-0.333v-0.13c0.313-0.116 0.57-0.347 0.721-0.641 0.004 0.036 0.006 0.072 0.006 0.109 0 0.469-0.312 0.866-0.74 0.995zM28.51 7.165v4.275c0 0.212-0.095 0.402-0.243 0.532v-0.349c0-0.524-0.156-1.030-0.451-1.464-0.11-0.161-0.196-0.339-0.254-0.529s-0.087-0.385-0.087-0.582v-0.648c0-0.979-0.797-1.776-1.774-1.776l-0.719-0.005c0.134-0.384 0.204-0.786 0.204-1.202v-1.563c0-0.122-0.015-0.24-0.041-0.354 1.883 0.158 3.367 1.74 3.367 3.663zM18.176 8.452c0-1.476 0.583-2.87 1.641-3.925 1.030-1.027 2.379-1.592 3.801-1.592 0.005 0 0.010 0 0.015 0h0.008c0.507 0.001 0.92 0.414 0.92 0.921v1.562c0 0.482-0.11 0.942-0.327 1.369-0.519 1.019-1.551 1.651-2.693 1.651-0.829 0-1.608 0.323-2.193 0.908s-0.908 1.364-0.908 2.192v0.378c-0.164-0.154-0.262-0.372-0.262-0.611v-2.854zM17.725 11.999c0.155 0.289 0.404 0.521 0.714 0.654v0.164c0 0.111 0.004 0.222 0.012 0.333-0.427-0.13-0.738-0.526-0.738-0.995-0-0.053 0.005-0.104 0.013-0.156zM19.215 13.95c-0.1-0.366-0.152-0.747-0.152-1.133v-1.277c0-0.661 0.258-1.283 0.725-1.75s1.089-0.725 1.751-0.725c1.312 0 2.504-0.693 3.156-1.82l1.003 0.007c0.635 0 1.151 0.516 1.151 1.151v0.648c0 0.26 0.039 0.517 0.115 0.766s0.19 0.484 0.335 0.697c0.224 0.329 0.342 0.713 0.342 1.112v1.193c0 1.146-0.446 2.223-1.256 3.033s-1.888 1.256-3.033 1.256c-0.521 0-1.030-0.092-1.512-0.274-0.363-0.136-0.704-0.322-1.017-0.551-0.248-0.746-0.668-1.43-1.243-2.001-0.117-0.116-0.239-0.226-0.366-0.329zM21.083 18.427v-0.54c0-0.25-0.018-0.497-0.053-0.741 0.127 0.068 0.256 0.131 0.388 0.187v1.017l-0.335 0.076zM22.044 21.199v-1.957l0.9 0.704-0.9 1.253zM23.372 19.489l-1.328-1.040v-0.895c0.424 0.117 0.863 0.177 1.309 0.177 0.462 0 0.915-0.065 1.348-0.187v0.905l-1.328 1.040zM24.7 21.199l-0.9-1.253 0.9-0.704v1.957z"></path>
<path d="M17.437 21.411l-0.564-0.27c-0.155 0.324-0.487 0.534-0.847 0.534s-0.692-0.209-0.846-0.534l-0.564 0.269c0.258 0.54 0.812 0.89 1.41 0.89s1.152-0.349 1.41-0.889z"></path>
<path d="M12.216 16.793l1.115 1.115 0.442-0.442-1.115-1.115-0.442 0.442z"></path>
<path d="M14.445 16.794l-1.115-1.115-0.442 0.442 1.115 1.115 0.442-0.442z"></path>
<path d="M21.934 27.547c0-1.628-1.109-3.017-2.697-3.377l-1.734-0.393v-0.485c1.423-0.57 2.488-1.926 2.68-3.591 0.044-0.385-0.119-0.77-0.427-1.006-0.319-0.245-0.869-0.77-0.962-1.542-0.035-0.288-0.222-0.528-0.489-0.627l-0.029-0.011c-0.309-0.114-0.653-0.016-0.854 0.243-1.149 1.479-3.352 1.915-4.564 2.044-0.312 0.033-0.597 0.198-0.782 0.453s-0.252 0.576-0.186 0.883c0.206 0.96 0.723 1.833 1.456 2.457 0.347 0.296 0.737 0.529 1.152 0.695v0.487l-1.734 0.393c-1.588 0.36-2.697 1.748-2.697 3.377v2.143h11.868v-2.143h-0zM12.5 20.008c-0.029-0.136-0-0.272 0.082-0.385s0.203-0.183 0.342-0.198c1.31-0.139 3.701-0.621 4.991-2.282 0.024-0.031 0.061-0.048 0.099-0.048 0.015 0 0.030 0.003 0.045 0.008l0.029 0.011c0.046 0.017 0.078 0.061 0.085 0.114 0.12 1 0.805 1.66 1.203 1.964 0.134 0.102 0.205 0.27 0.185 0.438-0.219 1.897-1.75 3.328-3.562 3.328-1.688-0-3.127-1.213-3.5-2.95zM16 23.583c0.3 0 0.594-0.034 0.878-0.098v0.407c-0.244 0.211-0.551 0.327-0.878 0.327s-0.634-0.116-0.878-0.327v-0.407c0.287 0.064 0.581 0.098 0.878 0.098zM14.717 24.368c0.357 0.308 0.806 0.476 1.283 0.475s0.926-0.168 1.283-0.475l1.1 0.249v1.8h-4.679v-1.82l1.013-0.23zM12.901 24.78l0.178-0.040v2.303h5.929v-2.284l0.091 0.021c0.213 0.048 0.416 0.12 0.606 0.211v4.075h-7.355v-4.1c0.174-0.079 0.358-0.142 0.552-0.185zM10.691 27.547c0-0.878 0.394-1.671 1.034-2.195v3.713h-1.034v-1.518zM21.309 29.065h-0.979v-3.667c0.608 0.524 0.979 1.296 0.979 2.148v1.518zM8.686 15.853c-0.239 0-0.46-0.14-0.563-0.355l-0.564 0.269c0.206 0.432 0.649 0.711 1.127 0.711s0.921-0.279 1.127-0.711l-0.564-0.27c-0.103 0.216-0.325 0.356-0.564 0.356z"></path>
<path d="M10.378 22.020h-7.044v0.625h7.044v-0.625z"></path>
<path d="M23.373 15.571c0.487 0 0.938-0.284 1.149-0.724l-0.564-0.27c-0.107 0.224-0.337 0.369-0.585 0.369s-0.478-0.145-0.585-0.369l-0.564 0.269c0.21 0.44 0.661 0.725 1.149 0.725z"></path>
<path d="M23.684 21.945h-0.625v6.414h0.625v-6.414z"></path>
</symbol>
<symbol id="icon-logo" viewBox="0 0 45 32">
<path fill="#000" style="fill: var(--color1, #000)" d="M1.499 25.436v-18.38h5.103l7.365 11.999h-2.683l7.155-11.999h5.103l0.053 18.38h-5.655l-0.053-9.872h0.894l-4.893 8.218h-2.736l-5.103-8.218h1.105v9.872h-5.655zM26.597 25.436v-18.38h8.865c1.719 0 3.2 0.28 4.446 0.84 1.263 0.56 2.236 1.365 2.92 2.416 0.684 1.033 1.026 2.258 1.026 3.676s-0.342 2.643-1.026 3.676c-0.684 1.015-1.657 1.794-2.92 2.337-1.245 0.543-2.727 0.814-4.446 0.814h-5.419l2.762-2.547v7.168h-6.208zM37.618 25.436l-4.524-6.695h6.576l4.577 6.695h-6.629zM32.804 18.951l-2.762-2.809h5.024c0.859 0 1.491-0.193 1.894-0.578 0.421-0.385 0.631-0.91 0.631-1.575s-0.21-1.19-0.631-1.575c-0.403-0.385-1.035-0.578-1.894-0.578h-5.024l2.762-2.809v9.925z"></path>
<path fill="#ff8a00" style="fill: var(--color2, #ff8a00)" d="M5.96 24.54h-3.452v-0.955l2.254-1.378v0.502l-2.254-1.339v-0.955l3.452-0.010v1.058l-1.854 0.010v-0.167l1.544 0.916v0.512l-1.544 0.955v-0.207h1.854v1.058zM6.039 18.036c0 0.279-0.044 0.538-0.133 0.778-0.089 0.236-0.214 0.441-0.375 0.615-0.164 0.174-0.357 0.31-0.577 0.409-0.22 0.095-0.46 0.143-0.72 0.143-0.263 0-0.503-0.048-0.72-0.143-0.22-0.098-0.411-0.235-0.572-0.409-0.164-0.174-0.291-0.379-0.38-0.615-0.089-0.24-0.133-0.499-0.133-0.778 0-0.282 0.044-0.541 0.133-0.778s0.215-0.441 0.38-0.615c0.161-0.174 0.352-0.308 0.572-0.404 0.217-0.098 0.457-0.148 0.72-0.148 0.26 0 0.5 0.049 0.72 0.148 0.22 0.095 0.413 0.23 0.577 0.404 0.161 0.174 0.286 0.379 0.375 0.615s0.133 0.496 0.133 0.778zM5.097 18.036c0-0.108-0.020-0.208-0.059-0.3-0.039-0.095-0.095-0.177-0.168-0.246-0.076-0.072-0.166-0.128-0.271-0.167-0.109-0.039-0.23-0.059-0.365-0.059s-0.255 0.020-0.36 0.059c-0.108 0.039-0.199 0.095-0.271 0.167-0.076 0.069-0.133 0.151-0.173 0.246-0.039 0.092-0.059 0.192-0.059 0.3s0.020 0.21 0.059 0.305c0.039 0.092 0.097 0.174 0.173 0.246 0.072 0.069 0.163 0.123 0.271 0.162 0.105 0.039 0.225 0.059 0.36 0.059s0.256-0.020 0.365-0.059c0.105-0.039 0.196-0.093 0.271-0.162 0.072-0.072 0.128-0.154 0.168-0.246 0.039-0.095 0.059-0.197 0.059-0.305zM6.039 13.863c0 0.279-0.044 0.538-0.133 0.778-0.089 0.236-0.214 0.441-0.375 0.615-0.164 0.174-0.357 0.31-0.577 0.409-0.22 0.095-0.46 0.143-0.72 0.143-0.263 0-0.503-0.048-0.72-0.143-0.22-0.098-0.411-0.235-0.572-0.409-0.164-0.174-0.291-0.379-0.38-0.615-0.089-0.24-0.133-0.499-0.133-0.778 0-0.282 0.044-0.542 0.133-0.778s0.215-0.441 0.38-0.615c0.161-0.174 0.352-0.309 0.572-0.404 0.217-0.098 0.457-0.148 0.72-0.148 0.26 0 0.5 0.049 0.72 0.148 0.22 0.095 0.413 0.23 0.577 0.404 0.161 0.174 0.286 0.379 0.375 0.615s0.133 0.496 0.133 0.778zM5.097 13.863c0-0.108-0.020-0.208-0.059-0.3-0.039-0.095-0.095-0.177-0.168-0.246-0.076-0.072-0.166-0.128-0.271-0.167-0.109-0.039-0.23-0.059-0.365-0.059s-0.255 0.020-0.36 0.059c-0.108 0.039-0.199 0.095-0.271 0.167-0.076 0.069-0.133 0.151-0.173 0.246-0.039 0.092-0.059 0.192-0.059 0.3s0.020 0.21 0.059 0.305c0.039 0.092 0.097 0.174 0.173 0.246 0.072 0.069 0.163 0.123 0.271 0.162 0.105 0.039 0.225 0.059 0.36 0.059s0.256-0.020 0.365-0.059c0.105-0.039 0.196-0.094 0.271-0.162 0.072-0.072 0.128-0.154 0.168-0.246 0.039-0.095 0.059-0.197 0.059-0.305zM5.96 11.497h-3.452v-1.698c0-0.384 0.071-0.722 0.212-1.014 0.138-0.292 0.335-0.52 0.592-0.684s0.562-0.246 0.917-0.246c0.358 0 0.667 0.082 0.927 0.246 0.256 0.164 0.455 0.392 0.597 0.684 0.138 0.292 0.207 0.63 0.207 1.014v1.698zM5.052 10.335v-0.487c0-0.164-0.031-0.307-0.094-0.428-0.062-0.125-0.155-0.222-0.276-0.29-0.125-0.069-0.276-0.103-0.454-0.103-0.174 0-0.322 0.034-0.444 0.103s-0.214 0.166-0.276 0.29c-0.062 0.121-0.094 0.264-0.094 0.428v0.487h1.637z"></path>
<path fill="#ff8a00" style="fill: var(--color2, #ff8a00)" d="M31.442 24.54h-3.452v-1.659c0-0.322 0.053-0.599 0.158-0.832 0.105-0.236 0.256-0.419 0.454-0.546 0.194-0.128 0.424-0.192 0.691-0.192s0.497 0.064 0.691 0.192c0.191 0.128 0.337 0.31 0.439 0.547 0.102 0.233 0.153 0.51 0.153 0.832v1.014l-0.478-0.517h1.346v1.162zM31.442 22.477l-1.258 0.847v-1.231l1.258-0.857v1.241zM30.224 23.378l-0.528 0.517v-0.94c0-0.161-0.036-0.279-0.108-0.355-0.072-0.079-0.171-0.118-0.296-0.118s-0.224 0.039-0.296 0.118c-0.072 0.076-0.108 0.194-0.108 0.355v0.94l-0.528-0.517h1.864zM31.521 19.065c0 0.279-0.044 0.538-0.133 0.778-0.089 0.236-0.214 0.441-0.375 0.615-0.164 0.174-0.357 0.31-0.577 0.409-0.22 0.095-0.46 0.143-0.72 0.143-0.263 0-0.503-0.048-0.72-0.143-0.22-0.099-0.411-0.235-0.572-0.409-0.164-0.174-0.291-0.379-0.38-0.615-0.089-0.24-0.133-0.499-0.133-0.778 0-0.282 0.044-0.542 0.133-0.778s0.215-0.441 0.38-0.615c0.161-0.174 0.352-0.308 0.572-0.404 0.217-0.099 0.457-0.148 0.72-0.148 0.26 0 0.5 0.049 0.72 0.148 0.22 0.095 0.413 0.23 0.577 0.404 0.161 0.174 0.286 0.379 0.375 0.615s0.133 0.496 0.133 0.778zM30.579 19.065c0-0.108-0.020-0.208-0.059-0.3-0.040-0.095-0.095-0.177-0.168-0.246-0.076-0.072-0.166-0.128-0.271-0.167-0.108-0.039-0.23-0.059-0.365-0.059s-0.255 0.020-0.36 0.059c-0.109 0.039-0.199 0.095-0.271 0.167-0.076 0.069-0.133 0.151-0.173 0.246-0.039 0.092-0.059 0.192-0.059 0.3s0.020 0.21 0.059 0.305c0.040 0.092 0.097 0.174 0.173 0.246 0.072 0.069 0.163 0.123 0.271 0.162 0.105 0.039 0.225 0.059 0.36 0.059s0.256-0.020 0.365-0.059c0.105-0.039 0.196-0.093 0.271-0.162 0.072-0.072 0.128-0.154 0.168-0.246 0.039-0.095 0.059-0.197 0.059-0.305z"></path>
</symbol>
<symbol id="icon-women" viewBox="0 0 32 32">
<path d="M16.468 13.925c-0.081 0.090-0.235 0.15-0.404 0.157-0.205 0.008-0.393-0.060-0.527-0.186-0.201-0.189-0.517-0.18-0.707 0.021s-0.18 0.517 0.021 0.707c0.312 0.294 0.739 0.459 1.181 0.459 0.024 0 0.049-0.001 0.073-0.002 0.441-0.018 0.844-0.196 1.107-0.488 0.185-0.206 0.167-0.521-0.038-0.706-0.204-0.184-0.521-0.168-0.706 0.038z"></path>
<path d="M23.409 18.837c0.978-0.428 1.887-0.941 2.212-1.143 0.14-0.087 0.229-0.237 0.236-0.402 0.018-0.396 0.396-9.745-3.987-14.335-1.558-1.631-3.531-2.458-5.865-2.458-3.74 0-6.588 2.174-8.236 6.288-1.741 4.348-1.697 10.015-0.927 10.749 0.465 0.423 1.265 0.825 2.071 1.146-4.337 1.979-4.339 5.502-4.339 7.966v4.351c0 0.276 0.224 0.5 0.5 0.5h21.854c0.276 0 0.5-0.224 0.5-0.5v-4.351c0-2.402-0.003-5.808-4.018-7.812zM7.549 16.829c-0.39-0.787-0.563-6.993 1.96-11.353 1.527-2.638 3.712-3.976 6.495-3.976 2.050 0 3.779 0.722 5.141 2.147 3.697 3.869 3.747 11.786 3.72 13.334-0.624 0.362-1.801 0.973-2.782 1.301-0.528-0.185-1.109-0.349-1.747-0.492l-0.727-1.37c1.63-1.579 2.846-3.891 2.846-5.698v-2.357c0-0.269-0.212-0.489-0.481-0.5-3.084-0.117-5.27-0.801-8.351-2.612-0.21-0.123-0.48-0.077-0.637 0.11-0.387 0.462-0.645 0.846-0.853 1.155-0.53 0.79-0.709 1.056-2.182 1.356-0.233 0.048-0.4 0.252-0.4 0.49v2.347c0 1.953 1.054 4.21 2.611 5.739l-0.536 1.347c-0.448 0.101-0.868 0.214-1.261 0.336-1.207-0.368-2.347-0.895-2.818-1.305zM15.968 17.229c-2.789 0-5.415-3.672-5.415-6.517v-1.946c1.458-0.354 1.83-0.821 2.413-1.69 0.149-0.222 0.312-0.465 0.526-0.744 2.891 1.653 5.067 2.34 7.964 2.509v1.881c0 2.51-2.997 6.507-5.488 6.507zM19.462 18.275l-0.768 2.439h-5.392l-0.776-2.468 0.438-1.102c0.91 0.671 1.938 1.085 3.003 1.085 0.961 0 1.955-0.438 2.868-1.133l0.626 1.179zM8.914 30.5v-2.443c0-0.276-0.224-0.5-0.5-0.5s-0.5 0.224-0.5 0.5v2.443h-2.341v-3.851c0-2.747 0.006-6.124 5.431-7.662l-1.408 2.547c-0.108 0.196-0.073 0.44 0.086 0.597l1.593 1.574-1.13 2.883c-0.081 0.206-0.016 0.441 0.159 0.577l4.288 3.333h-5.678zM11.213 26.607l1.114-2.842c0.073-0.186 0.028-0.398-0.114-0.538l-1.558-1.54 1.215-2.198 3.173 10.094-3.829-2.976zM13.617 21.714h4.762l-2.383 7.567-2.379-7.567zM20.124 19.503l1.202 2.223-1.561 1.543c-0.142 0.141-0.187 0.352-0.114 0.538l1.113 2.842-3.828 2.974 3.188-10.12zM26.427 30.5h-2.551v-2.443c0-0.276-0.224-0.5-0.5-0.5s-0.5 0.224-0.5 0.5v2.443h-5.439l4.236-3.291c0.175-0.136 0.24-0.371 0.159-0.577l-1.13-2.883 1.593-1.575c0.158-0.156 0.194-0.398 0.088-0.593l-1.402-2.594c0.328 0.093 0.643 0.19 0.932 0.295 0.006 0.002 0.012 0.005 0.018 0.007 4.492 1.646 4.495 4.782 4.495 7.361v3.851z"></path>
</symbol>
<symbol id="icon-facebook" viewBox="0 0 32 32">
<path d="M19 6h5v-6h-5c-3.86 0-7 3.14-7 7v3h-4v6h4v16h6v-16h5l1-6h-6v-3c0-0.542 0.458-1 1-1z"></path>
</symbol>
<symbol id="icon-instagram" viewBox="0 0 32 32">
<path d="M16 2.881c4.275 0 4.781 0.019 6.462 0.094 1.563 0.069 2.406 0.331 2.969 0.55 0.744 0.288 1.281 0.638 1.837 1.194 0.563 0.563 0.906 1.094 1.2 1.838 0.219 0.563 0.481 1.412 0.55 2.969 0.075 1.688 0.094 2.194 0.094 6.463s-0.019 4.781-0.094 6.463c-0.069 1.563-0.331 2.406-0.55 2.969-0.288 0.744-0.637 1.281-1.194 1.837-0.563 0.563-1.094 0.906-1.837 1.2-0.563 0.219-1.413 0.481-2.969 0.55-1.688 0.075-2.194 0.094-6.463 0.094s-4.781-0.019-6.463-0.094c-1.563-0.069-2.406-0.331-2.969-0.55-0.744-0.288-1.281-0.637-1.838-1.194-0.563-0.563-0.906-1.094-1.2-1.837-0.219-0.563-0.481-1.413-0.55-2.969-0.075-1.688-0.094-2.194-0.094-6.463s0.019-4.781 0.094-6.463c0.069-1.563 0.331-2.406 0.55-2.969 0.288-0.744 0.638-1.281 1.194-1.838 0.563-0.563 1.094-0.906 1.838-1.2 0.563-0.219 1.412-0.481 2.969-0.55 1.681-0.075 2.188-0.094 6.463-0.094zM16 0c-4.344 0-4.887 0.019-6.594 0.094-1.7 0.075-2.869 0.35-3.881 0.744-1.056 0.412-1.95 0.956-2.837 1.85-0.894 0.888-1.438 1.781-1.85 2.831-0.394 1.019-0.669 2.181-0.744 3.881-0.075 1.713-0.094 2.256-0.094 6.6s0.019 4.887 0.094 6.594c0.075 1.7 0.35 2.869 0.744 3.881 0.413 1.056 0.956 1.95 1.85 2.837 0.887 0.887 1.781 1.438 2.831 1.844 1.019 0.394 2.181 0.669 3.881 0.744 1.706 0.075 2.25 0.094 6.594 0.094s4.888-0.019 6.594-0.094c1.7-0.075 2.869-0.35 3.881-0.744 1.050-0.406 1.944-0.956 2.831-1.844s1.438-1.781 1.844-2.831c0.394-1.019 0.669-2.181 0.744-3.881 0.075-1.706 0.094-2.25 0.094-6.594s-0.019-4.887-0.094-6.594c-0.075-1.7-0.35-2.869-0.744-3.881-0.394-1.063-0.938-1.956-1.831-2.844-0.887-0.887-1.781-1.438-2.831-1.844-1.019-0.394-2.181-0.669-3.881-0.744-1.712-0.081-2.256-0.1-6.6-0.1v0z"></path>
<path d="M16 7.781c-4.537 0-8.219 3.681-8.219 8.219s3.681 8.219 8.219 8.219 8.219-3.681 8.219-8.219c0-4.537-3.681-8.219-8.219-8.219zM16 21.331c-2.944 0-5.331-2.387-5.331-5.331s2.387-5.331 5.331-5.331c2.944 0 5.331 2.387 5.331 5.331s-2.387 5.331-5.331 5.331z"></path>
<path d="M26.462 7.456c0 1.060-0.859 1.919-1.919 1.919s-1.919-0.859-1.919-1.919c0-1.060 0.859-1.919 1.919-1.919s1.919 0.859 1.919 1.919z"></path>
</symbol>
<symbol id="icon-tux" viewBox="0 0 32 32">
<path d="M17.739 23.029c-2.561 1.191-4.942 1.179-6.542 1.063-1.908-0.138-3.442-0.66-4.117-1.117-0.416-0.281-0.981-0.173-1.262 0.243s-0.173 0.981 0.243 1.262c1.084 0.734 3.002 1.28 5.005 1.424 0.34 0.024 0.712 0.040 1.114 0.040 1.743 0 3.957-0.166 6.326-1.268 0.455-0.212 0.652-0.752 0.441-1.207s-0.752-0.652-1.208-0.441zM27.842 21.682c0.087-7.896 0.899-22.819-14.218-21.613-14.925 1.201-10.968 16.968-11.19 22.248-0.197 2.793-1.124 6.208-2.434 9.683h4.034c0.415-1.473 0.72-2.929 0.851-4.317 0.243 0.17 0.503 0.334 0.781 0.491 0.452 0.266 0.84 0.62 1.251 0.995 0.961 0.876 2.050 1.868 4.179 1.992 0.143 0.008 0.287 0.012 0.427 0.012 2.153 0 3.625-0.942 4.809-1.699 0.567-0.363 1.057-0.676 1.518-0.827 1.31-0.41 2.454-1.072 3.309-1.914 0.134-0.131 0.258-0.267 0.374-0.405 0.476 1.746 1.129 3.711 1.853 5.672h8.614c-2.068-3.195-4.201-6.324-4.158-10.318zM3.878 17.386c0-0 0-0.001-0-0.001-0.148-2.577 1.085-4.745 2.754-4.842s3.142 1.913 3.291 4.49c0 0 0 0.001 0 0.001 0.008 0.139 0.011 0.276 0.012 0.413-0.529 0.133-1.006 0.326-1.434 0.551-0.002-0.019-0.003-0.038-0.005-0.057 0-0 0-0.001 0-0.001-0.143-1.463-0.924-2.567-1.745-2.467s-1.371 1.367-1.228 2.83c0 0 0 0.001 0 0.001 0.062 0.638 0.246 1.207 0.501 1.639-0.064 0.050-0.243 0.182-0.45 0.333-0.155 0.114-0.344 0.252-0.572 0.42-0.621-0.815-1.047-1.987-1.123-3.309zM20.789 23.756c-0.059 1.362-1.841 2.643-3.487 3.158l-0.009 0.003c-0.684 0.222-1.295 0.613-1.941 1.026-1.085 0.695-2.208 1.413-3.829 1.413-0.106 0-0.215-0.003-0.323-0.009-1.485-0.087-2.179-0.72-3.059-1.521-0.464-0.423-0.943-0.86-1.562-1.223l-0.013-0.008c-1.335-0.753-2.163-1.69-2.216-2.506-0.026-0.406 0.154-0.757 0.537-1.044 0.832-0.624 1.39-1.032 1.759-1.302 0.41-0.3 0.533-0.39 0.625-0.477 0.066-0.062 0.136-0.131 0.213-0.205 0.764-0.743 2.043-1.986 4.005-1.986 1.2 0 2.528 0.462 3.943 1.372 0.666 0.434 1.246 0.634 1.981 0.887 0.505 0.174 1.077 0.372 1.843 0.7l0.012 0.005c0.715 0.294 1.559 0.83 1.521 1.717zM20.395 20.556c-0.137-0.069-0.28-0.135-0.43-0.196-0.691-0.296-1.245-0.496-1.704-0.656 0.254-0.497 0.411-1.116 0.426-1.789 0-0 0-0.001 0-0.001 0.035-1.637-0.79-2.966-1.844-2.968s-1.936 1.322-1.971 2.959c0 0 0 0.001 0 0.001-0.001 0.054-0.001 0.107-0.001 0.16-0.649-0.299-1.287-0.515-1.911-0.649-0.003-0.061-0.006-0.123-0.008-0.185 0-0 0-0.001 0-0.002-0.061-2.982 1.769-5.45 4.086-5.513s4.245 2.303 4.305 5.285c0 0.001 0 0.001 0 0.002 0.027 1.348-0.333 2.59-0.949 3.552z"></path>
</symbol>
</defs>
</svg>
